# xmcd
#
# Track frame offsets: 
#        150
#        11442
#        25237
#        41485
#        52747
#        65300
#        77899
#        86698
#        102426
#        114627
#
# Disc length: 1716 seconds
#
# Revision: 0
# Processed by: cddbd v1.4PL0 Copyright (c) Steve Scherf et al.
# Submitted via: ExactAudioCopy v0.90b2
#
DISCID=7306b20a
DTITLE=Moe Bandy - Greatest Hits (Front Row Entertainment)
DYEAR=1900
DGENRE=Country
TTITLE0=Back In The Saddle Again
TTITLE1=Bury Me Not On The Lone Prairie
TTITLE2=Cool Water
TTITLE3=Goodbye Old Paint
TTITLE4=Home On The Range
TTITLE5=I'm An Old Cowhand (From The Rio Grande)
TTITLE6=The Old Chisholm Trail
TTITLE7=The Strawberry Roan
TTITLE8=Streets Of Laredo
TTITLE9=Red River Valley
EXTD=
EXTT0=
EXTT1=
EXTT2=
EXTT3=
EXTT4=
EXTT5=
EXTT6=
EXTT7=
EXTT8=
EXTT9=
PLAYORDER=
